<svg>
  <defs>
    <svg id="facebook" width="20" height="20" viewBox="0 0 20 20" xmlns="http://www.w3.org/2000/svg">
        <path d="M18.007 19c.55 0 .993-.444.993-.993V1.993c0-.55-.444-.993-.993-.993H1.993C1.443 1 1 1.444 1 1.993v16.014c0 .55.444.993.993.993h16.014zm-4.587 0v-6.97h2.34l.35-2.717h-2.69V7.578c0-.786.218-1.322 1.346-1.322h1.438v-2.43c-.25-.034-1.102-.108-2.096-.108-2.073 0-3.494 1.267-3.494 3.59v2.005H8.268v2.717h2.346V19h2.806z" fill="#3B5998" fill-rule="evenodd"/>
    </svg>
    <svg id="github" width="20" height="20" viewBox="0 0 20 20" xmlns="http://www.w3.org/2000/svg">
        <path d="M10 0C4.476 0 0 4.477 0 10c0 4.418 2.865 8.166 6.84 9.49.5.09.68-.218.68-.483 0-.237-.007-.866-.012-1.7-2.782.603-3.37-1.34-3.37-1.34-.454-1.157-1.11-1.464-1.11-1.464-.907-.62.07-.608.07-.608 1.003.07 1.53 1.03 1.53 1.03.893 1.53 2.342 1.087 2.912.83.09-.645.35-1.085.634-1.335-2.22-.253-4.555-1.11-4.555-4.943 0-1.09.39-1.984 1.03-2.683-.105-.253-.448-1.27.096-2.647 0 0 .84-.268 2.75 1.026C8.294 4.95 9.15 4.84 10 4.836c.85.004 1.705.115 2.504.337 1.91-1.294 2.747-1.026 2.747-1.026.548 1.377.204 2.394.1 2.647.64.7 1.03 1.592 1.03 2.683 0 3.842-2.34 4.687-4.566 4.935.36.308.678.92.678 1.852 0 1.336-.01 2.415-.01 2.743 0 .267.18.578.687.48C17.14 18.163 20 14.417 20 10c0-5.522-4.478-10-10-10" fill="#191717" fill-rule="evenodd"/>
    </svg>
    <svg id="google" width="20" height="20" viewBox="0 0 20 20" xmlns="http://www.w3.org/2000/svg">
        <path d="M19.6 10.23c0-.82-.1-1.42-.25-2.05H10v3.72h5.5c-.15.96-.74 2.31-2.04 3.22v2.45h3.16c1.89-1.73 2.98-4.3 2.98-7.34z" fill="#4285F4"/>
        <path d="M13.46 15.13c-.83.59-1.96 1-3.46 1-2.64 0-4.88-1.74-5.68-4.15H1.07v2.52C2.72 17.75 6.09 20 10 20c2.7 0 4.96-.89 6.62-2.42l-3.16-2.45z" fill="#34A853"/>
        <path d="M3.99 10c0-.69.12-1.35.32-1.97V5.51H1.07A9.973 9.973 0 0 0 0 10c0 1.61.39 3.14 1.07 4.49l3.24-2.52c-.2-.62-.32-1.28-.32-1.97z" fill="#FBBC05"/>
        <path d="M10 3.88c1.88 0 3.13.81 3.85 1.48l2.84-2.76C14.96.99 12.7 0 10 0 6.09 0 2.72 2.25 1.07 5.51l3.24 2.52C5.12 5.62 7.36 3.88 10 3.88z" fill="#EA4335"/>
    </svg>
    <svg id="linkedin" width="20" height="20" viewBox="0 0 48 48" xmlns="http://www.w3.org/2000/svg">
      <defs>
        <linearGradient id="0" gradientUnits="userSpaceOnUse" x1="24.61" y1="47.593" x2="23.593" y2="-.203">
          <stop stop-color="#197ff1"/><stop stop-color="#21c6fb" offset="1"/>
        </linearGradient>
      </defs>
      <rect height="48" width="48" rx="2.982" fill="url(#0)" fill-rule="evenodd"/>
      <g transform="matrix(.11217 0 0 .11217.095-.244)">
        <g fill="#def2fe"><path d="m130.4 360.04h-64.987v-194.19h64.987v194.19"/>
          <path d="m97.91 139.31h-.437c-21.793 0-35.92-14.904-35.92-33.563 0-19.03 14.542-33.535 36.767-33.535 22.23 0 35.899 14.496 36.33 33.535 0 18.663-14.1 33.563-36.741 33.563"/>
          <path d="m364.66 360.04h-64.966v-103.9c0-26.11-9.413-43.921-32.907-43.921-17.973 0-28.642 12.02-33.33 23.621-1.736 4.144-2.166 9.94-2.166 15.728v108.47h-64.954c0 0 .85-175.98 0-194.19h64.964v27.531c8.624-13.229 24.03-32.1 58.53-32.1 42.76 0 74.822 27.739 74.822 87.41v111.35"/>
        </g>
        <path d="m230.88 193.99c.111-.182.266-.401.42-.614v.614h-.42"/>
      </g>
    </svg>
    <svg id="twitter" width="20" height="20" viewBox="0 0 20 20" xmlns="http://www.w3.org/2000/svg">
        <path d="M20 3.924c-.736.326-1.527.547-2.357.646.848-.508 1.498-1.312 1.804-2.27-.792.47-1.67.812-2.605.996C16.092 2.498 15.027 2 13.847 2 11.58 2 9.743 3.837 9.743 6.103c0 .322.037.635.107.935-3.41-.17-6.434-1.804-8.458-4.287-.352.61-.555 1.314-.555 2.066 0 1.423.724 2.68 1.825 3.415-.672-.02-1.305-.206-1.858-.513v.052c0 1.987 1.414 3.645 3.29 4.022-.344.096-.706.146-1.08.146-.265 0-.522-.026-.772-.074.522 1.63 2.037 2.818 3.833 2.85C4.67 15.81 2.9 16.468.98 16.468c-.332 0-.66-.02-.98-.057 1.816 1.166 3.973 1.846 6.29 1.846 7.547 0 11.674-6.253 11.674-11.675 0-.18-.004-.355-.01-.53.8-.58 1.496-1.3 2.046-2.125" fill="#55ACEE" fill-rule="evenodd"/>
    </svg>
    <svg id="googlePlay" viewBox="0 0 52 58" xmlns="http://www.w3.org/2000/svg">
        <defs><linearGradient x1="91.498%" y1="4.966%" x2="-38.335%" y2="71.91%" id="a"><stop stop-color="#00A0FF" offset="0%"/><stop stop-color="#00A1FF" offset=".657%"/><stop stop-color="#00BEFF" offset="26.01%"/><stop stop-color="#00D2FF" offset="51.22%"/><stop stop-color="#00DFFF" offset="76.04%"/><stop stop-color="#00E3FF" offset="100%"/></linearGradient><linearGradient x1="107.589%" y1="49.996%" x2="-130.472%" y2="49.996%" id="b"><stop stop-color="#FFE000" offset="0%"/><stop stop-color="#FFBD00" offset="40.87%"/><stop stop-color="orange" offset="77.54%"/><stop stop-color="#FF9C00" offset="100%"/></linearGradient><linearGradient x1="86.244%" y1="17.846%" x2="-50.144%" y2="194.808%" id="c"><stop stop-color="#FF3A44" offset="0%"/><stop stop-color="#C31162" offset="100%"/></linearGradient><linearGradient x1="-18.809%" y1="-54.151%" x2="42.094%" y2="24.87%" id="d"><stop stop-color="#32A071" offset="0%"/><stop stop-color="#2DA771" offset="6.85%"/><stop stop-color="#15CF74" offset="47.62%"/><stop stop-color="#06E775" offset="80.09%"/><stop stop-color="#00F076" offset="100%"/></linearGradient></defs><g fill-rule="nonzero" fill="none"><path d="M1.043 1.204C.388 1.888 0 2.946 0 4.316v48.998c0 1.373.388 2.431 1.043 3.111l.168.159 27.9-27.444v-.647L1.21 1.043l-.168.161z" fill="url(#a)"/><path d="M38.408 38.294L29.11 29.14v-.647l9.3-9.15.212.116 11.018 6.159c3.147 1.758 3.147 4.636 0 6.398l-11.018 6.158-.214.12z" fill="url(#b)"/><path d="M38.622 38.174l-9.512-9.357L1.043 56.429c1.037 1.081 2.752 1.214 4.68.136l32.899-18.391" fill="url(#c)"/><path d="M38.622 19.46L5.723 1.067C3.795-.01 2.08.123 1.043 1.204L29.11 28.817l9.512-9.358z" fill="url(#d)"/><g fill="#000"><path d="M38.41 37.97L5.724 56.24c-1.83 1.024-3.462.956-4.512.024l-.168.165.168.158c1.05.93 2.682 1 4.512-.022l32.899-18.391-.211-.204z" opacity=".2"/><path d="M1.043 56.105C.388 55.422 0 54.363 0 52.993v.324c0 1.373.388 2.432 1.043 3.112l.168-.165-.168-.16z" opacity=".12"/></g><path d="M49.64 31.692L38.41 37.97l.212.207L49.64 32.02c1.573-.88 2.36-2.04 2.36-3.2-.132 1.047-.935 2.076-2.36 2.873z" fill="#000" opacity=".12"/><path d="M5.723 1.392l43.917 24.55c1.429.796 2.228 1.825 2.36 2.875 0-1.16-.787-2.319-2.36-3.2L5.723 1.069C2.577-.69 0 .771 0 4.316v.324C0 1.094 2.574-.366 5.723 1.392z" fill="#FFF" opacity=".25"/></g>
    </svg>
    <svg id="apple" xmlns="http://www.w3.org/2000/svg" xmlns:xlink="http://www.w3.org/1999/xlink" x="0px" y="0px" width="512px" height="512px" viewBox="0 0 512 512" style="enable-background:new 0 0 512 512;" xml:space="preserve">
      <g><path d="M395.748,272.046c-0.646-64.841,52.88-95.938,55.271-97.483c-30.075-44.01-76.925-50.039-93.62-50.736   c-39.871-4.037-77.798,23.474-98.033,23.474c-20.184,0-51.409-22.877-84.476-22.276c-43.458,0.646-83.529,25.269-105.906,64.19   c-45.152,78.35-11.563,194.42,32.445,257.963c21.504,31.104,47.146,66.038,80.813,64.79c32.421-1.294,44.681-20.979,83.878-20.979   c39.196,0,50.215,20.979,84.524,20.335c34.888-0.648,56.991-31.699,78.347-62.898c24.694-36.084,34.862-71.019,35.462-72.812   C463.678,375.26,396.422,349.495,395.748,272.046z M331.28,81.761C349.149,60.082,361.21,30.005,357.92,0   c-25.739,1.048-56.938,17.145-75.405,38.775c-16.57,19.188-31.075,49.813-27.188,79.218   C284.061,120.235,313.392,103.391,331.28,81.761z" fill="#303030"/></g>
    </svg>
    <svg id="whatsapp" xmlns="http://www.w3.org/2000/svg" xmlns:xlink="http://www.w3.org/1999/xlink" x="0px" y="0px" viewBox="0 0 58 58" style="enable-background:new 0 0 58 58;" xml:space="preserve">
      <g>
        <path style="fill:#2CB742;" d="M0,58l4.988-14.963C2.457,38.78,1,33.812,1,28.5C1,12.76,13.76,0,29.5,0S58,12.76,58,28.5
          S45.24,57,29.5,57c-4.789,0-9.299-1.187-13.26-3.273L0,58z"/>
        <path style="fill:#FFFFFF;" d="M47.683,37.985c-1.316-2.487-6.169-5.331-6.169-5.331c-1.098-0.626-2.423-0.696-3.049,0.42
          c0,0-1.577,1.891-1.978,2.163c-1.832,1.241-3.529,1.193-5.242-0.52l-3.981-3.981l-3.981-3.981c-1.713-1.713-1.761-3.41-0.52-5.242
          c0.272-0.401,2.163-1.978,2.163-1.978c1.116-0.627,1.046-1.951,0.42-3.049c0,0-2.844-4.853-5.331-6.169
          c-1.058-0.56-2.357-0.364-3.203,0.482l-1.758,1.758c-5.577,5.577-2.831,11.873,2.746,17.45l5.097,5.097l5.097,5.097
          c5.577,5.577,11.873,8.323,17.45,2.746l1.758-1.758C48.048,40.341,48.243,39.042,47.683,37.985z"/>
      </g>
    </svg>

  </defs>
</svg>
